# xmcd
#
# Track frame offsets: 
#        150
#        2697
#        12490
#        33140
#        44807
#        56324
#        73427
#        88858
#        103919
#        117305
#        129047
#        145992
#        165598
#        181838
#        198068
#
# Disc length: 2890 seconds
#
# Revision: 0
# Processed by: cddbd v1.5.2PL0 Copyright (c) Steve Scherf et al.
# Submitted via: ExactAudioCopy v0.95a5
#
DISCID=ca0b480f
DTITLE=Tommy Carle - Upbringing
DYEAR=2007
DGENRE=Bluegrass
TTITLE0=Intro-Bill Wilson
TTITLE1=Head Over Heels
TTITLE2=House of the Rising Sun
TTITLE3=The In Crowd
TTITLE4=Why Don't You Tell Me So
TTITLE5=Upbringing
TTITLE6=Old Joe Clark
TTITLE7=Today, I Started Lovin' You Again
TTITLE8=Harold's Super Service
TTITLE9=Shady Grove
TTITLE10=Roustabout
TTITLE11=Come Sit by the River
TTITLE12=Roadkill
TTITLE13=Paradise
TTITLE14=Baby, Why You Been Gone So Long
EXTD=
EXTT0=
EXTT1=
EXTT2=
EXTT3=
EXTT4=
EXTT5=
EXTT6=
EXTT7=
EXTT8=
EXTT9=
EXTT10=
EXTT11=
EXTT12=
EXTT13=
EXTT14=
PLAYORDER=
